<svg height="69.959" width="70" xmlns="http://www.w3.org/2000/svg"><path d="m-297.89582 653.48578c-.70477-.2639-1.81963-1.3475-16.6986-16.2292-12.77189-12.7743-16.00556-16.0791-16.25576-16.6134-.73765-1.5751-.43637-3.3688.81767-4.8682.35924-.4295 5.26957-5.3489 10.91186-10.932l10.2587-10.1512 3.92548 3.9255 3.92549 3.9255-.17772.8374c-.48844 2.3017.61418 4.7002 2.65952 5.7852l.63336.336v9.6453 9.6452l-.60396.2839c-1.44669.68-2.65898 2.49-2.79395 4.1714-.21337 2.6581 1.39745 4.907 4.0065 5.5935 1.15363.3036 1.3096.3065 2.34895.043 3.25228-.8237 4.9253-4.0204 3.74918-7.1639-.30047-.8031-1.27265-1.9629-2.06418-2.4625l-.52338-.3304v-9.4724c0-5.2098.0468-9.4723.10395-9.4723.0572 0 1.73276 1.6296 3.72353 3.6215l3.61959 3.6215-.15855.4804c-.22725.6886-.20752 2.1643.0403 3.0169.45289 1.5579 1.91675 3.0066 3.51828 3.4819.52821.1568 1.09168.2067 1.87484.1661 2.5075-.1299 4.34687-1.7956 4.87241-4.4124.29946-1.4912-.37729-3.4559-1.58102-4.59-1.36324-1.2844-3.03578-1.7678-4.6978-1.3576l-.94366.2329-3.82546-3.8255-3.82546-3.8255.17544-1.044c.54276-3.2302-1.63838-6.0775-4.78865-6.2514-.54986-.03-1.28739.017-1.63895.1058l-.63921.161-3.94891-3.956-3.94891-3.9559 3.46609-3.5305c4.01162-4.0861 4.30864-4.2941 6.13062-4.2941 2.04754 0 .7538-1.1613 18.47566 16.5835 12.64456 12.661 15.86435 15.9558 16.12952 16.5053.4765.9874.52804 2.3468.13014 3.4326-.29292.7993-.77857 1.3005-16.31719 16.8391-15.35028 15.3503-16.04829 16.0274-16.80994 16.3051-1.0232.373-2.24737.3703-3.25586-.01z" fill="#00bcf2" transform="translate(331.247 -583.812)"/></svg>