<svg height="32" viewBox="0 0 32 32" width="32" xmlns="http://www.w3.org/2000/svg"><path d="m18.734 3.667 6.578 3.802c1.089-1.146 2.901-1.193 4.047-.104.193.188.365.401.5.635.786 1.37.313 3.12-1.063 3.906-.229.13-.479.234-.745.297v7.599c1.531.365 2.474 1.896 2.109 3.427-.063.271-.172.531-.307.771-.792 1.365-2.536 1.833-3.906 1.042-.26-.146-.5-.344-.698-.568l-6.542 3.776c.495 1.495-.318 3.109-1.813 3.604-.292.099-.594.146-.896.146-1.573 0-2.854-1.271-2.854-2.849 0-.271.042-.547.12-.813l-6.583-3.797c-1.089 1.141-2.896 1.188-4.036.094-1.135-1.089-1.177-2.891-.094-4.031.38-.396.865-.677 1.396-.807v-7.599c-1.531-.365-2.479-1.906-2.109-3.443.063-.266.167-.521.302-.755.786-1.365 2.536-1.833 3.901-1.042.234.135.453.302.641.5l6.583-3.797c-.448-1.51.417-3.099 1.922-3.542.26-.083.536-.12.813-.12 1.573 0 2.854 1.271 2.854 2.844 0 .281-.042.557-.12.823zm-.687 1.172c-.026.026-.047.052-.078.078l8.615 14.917c.036-.01.078-.021.109-.031v-7.609c-1.526-.375-2.453-1.922-2.073-3.448.005-.031.016-.068.021-.099zm-4.021.078-.078-.078-6.594 3.802c.438 1.51-.438 3.089-1.948 3.526-.036.01-.068.016-.104.026v7.609l.115.031 8.615-14.917zm2.771.677c-.521.146-1.073.146-1.589 0l-8.615 14.917c.391.375.667.859.802 1.391h17.214c.13-.531.406-1.016.802-1.396zm1.312 21.635 6.552-3.786c-.021-.063-.036-.125-.052-.188h-17.219l-.031.109 6.589 3.802c.516-.536 1.245-.87 2.052-.87.839 0 1.589.359 2.109.932z"/></svg>