<svg width="36" height="49" viewBox="0 0 36 49" fill="none" xmlns="http://www.w3.org/2000/svg">
<path fill-rule="evenodd" clip-rule="evenodd" d="M22.9167 0.199997C24.0134 1.44868 24.3754 3.23418 24.0601 4.84463C23.7217 6.65347 22.718 8.25225 21.5395 9.6293C20.5942 10.7379 19.5088 11.7182 18.3769 12.6285C17.0582 13.6904 15.7629 14.8341 14.9343 16.3278C14.2341 17.5415 14.0707 19.0353 14.5492 20.354C15.3311 22.6179 17.1516 24.2984 18.1435 26.434C17.0466 25.4654 15.9729 24.4618 14.9693 23.3998C13.919 22.2795 12.9271 21.0892 12.2736 19.6888C11.8301 18.7085 11.6317 17.5649 11.9701 16.5262C12.3086 15.4643 13.0671 14.6124 13.8257 13.8188C15.9379 11.7066 18.5404 10.1545 20.6059 8.00718C21.7497 6.82852 22.6948 5.41646 23.0215 3.79434C23.29 2.604 23.1616 1.37866 22.9167 0.199997Z" fill="white"/>
<path fill-rule="evenodd" clip-rule="evenodd" d="M22.9167 0.199997C24.0134 1.44868 24.3754 3.23418 24.0601 4.84463C23.7217 6.65347 22.718 8.25225 21.5395 9.6293C20.5942 10.7379 19.5088 11.7182 18.3769 12.6285C17.0582 13.6904 15.7629 14.8341 14.9343 16.3278C14.2341 17.5415 14.0707 19.0353 14.5492 20.354C15.3311 22.6179 17.1516 24.2984 18.1435 26.434C17.0466 25.4654 15.9729 24.4618 14.9693 23.3998C13.919 22.2795 12.9271 21.0892 12.2736 19.6888C11.8301 18.7085 11.6317 17.5649 11.9701 16.5262C12.3086 15.4643 13.0671 14.6124 13.8257 13.8188C15.9379 11.7066 18.5404 10.1545 20.6059 8.00718C21.7497 6.82852 22.6948 5.41646 23.0215 3.79434C23.29 2.604 23.1616 1.37866 22.9167 0.199997Z" stroke="white" stroke-width="0.094"/>
<path fill-rule="evenodd" clip-rule="evenodd" d="M21.1894 13.4921C23.4534 11.8233 26.1024 10.7613 28.7864 9.99107C26.6626 11.3448 24.4454 12.5818 22.6131 14.3206C21.948 14.9625 21.3177 15.6977 21.0259 16.5963C20.8042 17.2614 20.8977 17.9966 21.1662 18.6268C21.6562 19.7471 22.4847 20.6574 23.115 21.6843C23.6517 22.5596 23.7452 23.6799 23.3367 24.6252C22.7181 26.0139 21.5044 27.0292 20.2442 27.8344C20.0808 27.9278 19.9409 28.1028 19.7422 28.1262C20.5827 27.3676 21.2361 26.294 21.2127 25.1386C21.1894 24.2751 20.711 23.5165 20.1507 22.898C18.9954 21.521 18.0269 19.7705 18.2253 17.915C18.4238 16.0594 19.7539 14.5657 21.1894 13.4921Z" fill="white"/>
<path fill-rule="evenodd" clip-rule="evenodd" d="M21.1894 13.4921C23.4534 11.8233 26.1024 10.7613 28.7864 9.99107C26.6626 11.3448 24.4454 12.5818 22.6131 14.3206C21.948 14.9625 21.3177 15.6977 21.0259 16.5963C20.8042 17.2614 20.8977 17.9966 21.1662 18.6268C21.6562 19.7471 22.4847 20.6574 23.115 21.6843C23.6517 22.5596 23.7452 23.6799 23.3367 24.6252C22.7181 26.0139 21.5044 27.0292 20.2442 27.8344C20.0808 27.9278 19.9409 28.1028 19.7422 28.1262C20.5827 27.3676 21.2361 26.294 21.2127 25.1386C21.1894 24.2751 20.711 23.5165 20.1507 22.898C18.9954 21.521 18.0269 19.7705 18.2253 17.915C18.4238 16.0594 19.7539 14.5657 21.1894 13.4921Z" stroke="white" stroke-width="0.094"/>
<path fill-rule="evenodd" clip-rule="evenodd" d="M29.2185 26.9825C29.7085 26.3873 30.4903 26.2356 31.2024 26.1423C32.4393 25.9789 33.7578 26.294 34.6914 27.1459C35.4619 27.8344 35.8936 28.908 35.7301 29.9467C35.555 31.1487 34.7498 32.1523 33.8397 32.9108C32.1943 34.2295 30.1636 34.9997 28.1331 35.5133C28.2498 35.3847 28.378 35.268 28.5298 35.1748C30.0701 34.3462 31.5989 33.3776 32.731 32.0239C33.4197 31.1837 33.9564 30.0867 33.7346 28.9781C33.5012 27.6944 32.2527 26.7608 30.9805 26.6908C30.3736 26.6324 29.802 26.8658 29.2185 26.9825Z" fill="white"/>
<path fill-rule="evenodd" clip-rule="evenodd" d="M29.2185 26.9825C29.7085 26.3873 30.4903 26.2356 31.2024 26.1423C32.4393 25.9789 33.7578 26.294 34.6914 27.1459C35.4619 27.8344 35.8936 28.908 35.7301 29.9467C35.555 31.1487 34.7498 32.1523 33.8397 32.9108C32.1943 34.2295 30.1636 34.9997 28.1331 35.5133C28.2498 35.3847 28.378 35.268 28.5298 35.1748C30.0701 34.3462 31.5989 33.3776 32.731 32.0239C33.4197 31.1837 33.9564 30.0867 33.7346 28.9781C33.5012 27.6944 32.2527 26.7608 30.9805 26.6908C30.3736 26.6324 29.802 26.8658 29.2185 26.9825Z" stroke="white" stroke-width="0.094"/>
<path fill-rule="evenodd" clip-rule="evenodd" d="M5.76178 28.0445C7.90905 27.1225 10.2429 26.5274 12.5887 26.5624C11.2233 26.9592 9.82292 27.2976 8.53922 27.9044C8.23581 28.0678 7.88571 28.2195 7.71066 28.5346C7.61718 28.7797 7.87404 28.943 8.06076 29.0247C8.85431 29.3515 9.72956 29.3982 10.5815 29.4799C13.569 29.6783 16.5681 29.5616 19.544 29.3748C22.4847 29.1881 25.4022 28.7913 28.3081 28.3245C27.6662 28.628 27.0127 28.9314 26.4177 29.3165C26.114 29.5265 25.7407 29.5849 25.4022 29.6666C21.8313 30.4601 18.1669 30.7052 14.5259 30.7636C13.1138 30.7752 11.7134 30.7519 10.3131 30.6585C8.74928 30.5535 7.17384 30.4368 5.64508 30.0283C5.20162 29.9 4.73482 29.7599 4.38473 29.4449C4.20968 29.3048 4.20968 29.0247 4.36139 28.8614C4.74649 28.4646 5.28331 28.2779 5.76178 28.0445Z" fill="white"/>
<path fill-rule="evenodd" clip-rule="evenodd" d="M5.76178 28.0445C7.90905 27.1225 10.2429 26.5274 12.5887 26.5624C11.2233 26.9592 9.82292 27.2976 8.53922 27.9044C8.23581 28.0678 7.88571 28.2195 7.71066 28.5346C7.61718 28.7797 7.87404 28.943 8.06076 29.0247C8.85431 29.3515 9.72956 29.3982 10.5815 29.4799C13.569 29.6783 16.5681 29.5616 19.544 29.3748C22.4847 29.1881 25.4022 28.7913 28.3081 28.3245C27.6662 28.628 27.0127 28.9314 26.4177 29.3165C26.114 29.5265 25.7407 29.5849 25.4022 29.6666C21.8313 30.4601 18.1669 30.7052 14.5259 30.7636C13.1138 30.7752 11.7134 30.7519 10.3131 30.6585C8.74928 30.5535 7.17384 30.4368 5.64508 30.0283C5.20162 29.9 4.73482 29.7599 4.38473 29.4449C4.20968 29.3048 4.20968 29.0247 4.36139 28.8614C4.74649 28.4646 5.28331 28.2779 5.76178 28.0445Z" stroke="white" stroke-width="0.094"/>
<path fill-rule="evenodd" clip-rule="evenodd" d="M8.51594 33.0275C9.12278 32.5491 9.84631 32.2806 10.5698 32.0239C10.3364 32.304 10.0097 32.5724 9.98635 32.9575C9.97468 33.2026 10.1731 33.3893 10.3715 33.506C10.7566 33.7044 11.1884 33.7744 11.6201 33.8328C13.8608 34.0661 16.1247 34.1945 18.3887 34.0428C20.4542 33.9378 22.5083 33.5994 24.5505 33.2376C25.1105 33.7627 25.7759 34.1245 26.4761 34.4396C24.0135 35.1631 21.4812 35.5832 18.9371 35.7815C16.5332 35.945 14.0942 35.9333 11.7018 35.5481C10.7566 35.3731 9.78796 35.1748 8.92439 34.7313C8.57429 34.5446 8.17751 34.2995 8.07248 33.8911C8.00246 33.541 8.2592 33.2259 8.51594 33.0275Z" fill="white"/>
<path fill-rule="evenodd" clip-rule="evenodd" d="M8.51594 33.0275C9.12278 32.5491 9.84631 32.2806 10.5698 32.0239C10.3364 32.304 10.0097 32.5724 9.98635 32.9575C9.97468 33.2026 10.1731 33.3893 10.3715 33.506C10.7566 33.7044 11.1884 33.7744 11.6201 33.8328C13.8608 34.0661 16.1247 34.1945 18.3887 34.0428C20.4542 33.9378 22.5083 33.5994 24.5505 33.2376C25.1105 33.7627 25.7759 34.1245 26.4761 34.4396C24.0135 35.1631 21.4812 35.5832 18.9371 35.7815C16.5332 35.945 14.0942 35.9333 11.7018 35.5481C10.7566 35.3731 9.78796 35.1748 8.92439 34.7313C8.57429 34.5446 8.17751 34.2995 8.07248 33.8911C8.00246 33.541 8.2592 33.2259 8.51594 33.0275Z" stroke="white" stroke-width="0.094"/>
<path fill-rule="evenodd" clip-rule="evenodd" d="M9.86963 38.1155C10.4064 37.6838 11.0716 37.4621 11.7252 37.2754C11.5151 37.4737 11.1417 37.7187 11.305 38.0572C11.6201 38.4656 12.2036 38.5124 12.6704 38.6174C14.6426 38.8625 16.6382 39.0259 18.6104 38.8741C20.104 38.7809 21.5747 38.5124 23.0334 38.2558C23.8736 38.7458 24.7488 39.1658 25.6473 39.5395C24.2703 40.1577 22.7881 40.5546 21.3062 40.8347C18.8087 41.2781 16.2297 41.3364 13.7207 40.9399C12.6121 40.7412 11.4801 40.4846 10.4765 39.936C10.0914 39.7145 9.68291 39.4576 9.51953 39.0259C9.39116 38.6875 9.60122 38.3257 9.86963 38.1155Z" fill="white"/>
<path fill-rule="evenodd" clip-rule="evenodd" d="M9.86963 38.1155C10.4064 37.6838 11.0716 37.4621 11.7252 37.2754C11.5151 37.4737 11.1417 37.7187 11.305 38.0572C11.6201 38.4656 12.2036 38.5124 12.6704 38.6174C14.6426 38.8625 16.6382 39.0259 18.6104 38.8741C20.104 38.7809 21.5747 38.5124 23.0334 38.2558C23.8736 38.7458 24.7488 39.1658 25.6473 39.5395C24.2703 40.1577 22.7881 40.5546 21.3062 40.8347C18.8087 41.2781 16.2297 41.3364 13.7207 40.9399C12.6121 40.7412 11.4801 40.4846 10.4765 39.936C10.0914 39.7145 9.68291 39.4576 9.51953 39.0259C9.39116 38.6875 9.60122 38.3257 9.86963 38.1155Z" stroke="white" stroke-width="0.094"/>
<path fill-rule="evenodd" clip-rule="evenodd" d="M3.39282 41.4182C4.46646 41.0566 5.5751 40.7648 6.70709 40.7297C7.16221 40.718 7.62901 40.7412 8.02579 40.9746C6.67208 41.0566 5.31836 41.3948 4.10469 42.0134C3.83628 42.1652 3.53286 42.3403 3.42783 42.6552C3.42783 43.0169 3.83628 43.1336 4.10469 43.2503C5.79683 43.8806 7.60567 44.0788 9.3795 44.2658C14.666 44.709 19.9874 44.5923 25.274 44.114C27.2694 43.8921 29.2769 43.6704 31.214 43.122C31.8323 42.9118 32.5325 42.7019 32.941 42.1533C33.1863 41.8267 33.0228 41.4182 32.7778 41.1381C33.1744 41.3599 33.7347 41.6401 33.6531 42.1768C33.5013 42.7368 32.9293 43.0285 32.4625 43.2971C30.969 44.0556 29.3233 44.4408 27.6895 44.779C22.94 45.7126 18.0736 45.9228 13.2423 45.7829C9.60123 45.6543 5.96021 45.3042 2.36587 44.6858C1.72402 44.534 1.00049 44.4057 0.53369 43.9038C0.230272 43.5537 0.498681 43.0637 0.790429 42.8071C1.52564 42.1301 2.4709 41.7568 3.39282 41.4182Z" fill="white"/>
<path fill-rule="evenodd" clip-rule="evenodd" d="M3.39282 41.4182C4.46646 41.0566 5.5751 40.7648 6.70709 40.7297C7.16221 40.718 7.62901 40.7412 8.02579 40.9746C6.67208 41.0566 5.31836 41.3948 4.10469 42.0134C3.83628 42.1652 3.53286 42.3403 3.42783 42.6552C3.42783 43.0169 3.83628 43.1336 4.10469 43.2503C5.79683 43.8806 7.60567 44.0788 9.3795 44.2658C14.666 44.709 19.9874 44.5923 25.274 44.114C27.2694 43.8921 29.2769 43.6704 31.214 43.122C31.8323 42.9118 32.5325 42.7019 32.941 42.1533C33.1863 41.8267 33.0228 41.4182 32.7778 41.1381C33.1744 41.3599 33.7347 41.6401 33.6531 42.1768C33.5013 42.7368 32.9293 43.0285 32.4625 43.2971C30.969 44.0556 29.3233 44.4408 27.6895 44.779C22.94 45.7126 18.0736 45.9228 13.2423 45.7829C9.60123 45.6543 5.96021 45.3042 2.36587 44.6858C1.72402 44.534 1.00049 44.4057 0.53369 43.9038C0.230272 43.5537 0.498681 43.0637 0.790429 42.8071C1.52564 42.1301 2.4709 41.7568 3.39282 41.4182Z" stroke="white" stroke-width="0.094"/>
<path fill-rule="evenodd" clip-rule="evenodd" d="M32.4742 45.4092C33.6531 45.0008 34.9132 44.5691 35.7885 43.6355C35.637 44.6507 34.7617 45.3509 33.8981 45.8061C32.2408 46.6697 30.3855 47.0666 28.5416 47.3931C24.6437 48.0117 20.6876 48.1633 16.7316 48.0933C14.0358 48.0117 11.3167 47.9067 8.66754 47.3464C8.03748 47.1714 7.36062 47.0547 6.81213 46.6814C9.16946 47.0781 11.5618 47.2416 13.9541 47.3348C17.8869 47.4515 21.8313 47.3 25.7408 46.8096C28.0047 46.4946 30.2804 46.1094 32.4742 45.4092Z" fill="white"/>
<path fill-rule="evenodd" clip-rule="evenodd" d="M32.4742 45.4092C33.6531 45.0008 34.9132 44.5691 35.7885 43.6355C35.637 44.6507 34.7617 45.3509 33.8981 45.8061C32.2408 46.6697 30.3855 47.0666 28.5416 47.3931C24.6437 48.0117 20.6876 48.1633 16.7316 48.0933C14.0358 48.0117 11.3167 47.9067 8.66754 47.3464C8.03748 47.1714 7.36062 47.0547 6.81213 46.6814C9.16946 47.0781 11.5618 47.2416 13.9541 47.3348C17.8869 47.4515 21.8313 47.3 25.7408 46.8096C28.0047 46.4946 30.2804 46.1094 32.4742 45.4092Z" stroke="white" stroke-width="0.094"/>
</svg>
