<svg xmlns="http://www.w3.org/2000/svg" width="124" height="122" viewBox="0 0 124 122" fill="none">
  <path fill-rule="evenodd" clip-rule="evenodd" d="M80.803 31.2301C78.199 23.1221 74.022 15.9461 68.136 9.77112C66.648 8.20912 64.994 6.77812 63.956 4.83512C63.3 3.60512 62.675 2.35812 62.036 1.12012L61.63 0.0991211L61.517 0.501121C61.464 2.52112 60.32 3.89012 58.896 5.16912C57.292 6.60712 55.8 8.16912 54.26 9.67812L49.524 15.9071L45.695 22.9491L43.134 29.8641L43.057 29.9711C41.648 34.6001 40.953 39.3601 40.612 44.1661C40.483 45.9731 40.631 47.8051 40.732 49.6211C40.877 52.2171 41.328 54.7681 42.004 57.2811C44.461 66.4071 49.448 73.9761 56.267 80.4081C57.533 81.6031 58.902 82.6901 60.223 83.8261L60.808 85.8341L61.352 88.9501L61.612 92.2031C61.609 92.8631 61.582 93.5261 61.621 94.1841C61.632 94.3531 61.852 94.5091 61.976 94.6711L63.08 95.0591L64.229 95.5061L64.032 92.6151L64.023 89.7671L64.42 85.4291L64.708 84.4851L65.533 83.0241C66.551 82.2061 67.642 81.4621 68.569 80.5511C70.246 78.9041 71.92 77.2341 73.421 75.4291C75.3738 73.0895 77.0418 70.5262 78.39 67.7931C79.289 65.9601 80.137 64.0901 80.838 62.1751C81.456 60.4871 81.839 58.7121 82.326 56.9751L82.454 56.6001C83.459 51.9121 83.628 47.1761 83.259 42.4101C82.962 38.5691 82.059 34.8621 80.803 31.2301ZM60.903 81.5051C61.057 80.7341 61.248 79.9671 61.387 79.1931C61.248 79.9671 61.058 80.7341 60.903 81.5051ZM64.32 82.0371L63.674 80.6221L64.32 82.0371L65.269 82.8481L64.32 82.0371ZM104.474 99.9641C103.648 98.3811 102.436 97.1791 100.834 96.3901C99.492 95.7301 98.049 95.4401 96.565 95.3981C95.453 95.3661 94.337 95.4231 93.223 95.4371C92.234 95.4491 91.244 95.4661 90.255 95.4571C89.092 95.4451 87.929 95.4101 86.766 95.3771C86.573 95.3711 86.436 95.4101 86.346 95.6061C86.205 95.9111 86.038 96.2051 85.865 96.5391L86.059 96.6011C86.636 96.7031 87.216 96.7901 87.79 96.9051C88.528 97.0521 88.86 97.4761 88.894 98.0981C88.944 98.9841 88.964 99.8721 88.961 100.76C88.946 104.274 88.921 107.788 88.895 111.301C88.893 111.533 88.889 111.775 88.826 111.993C88.753 112.245 88.674 112.571 88.486 112.695C88.1477 112.912 87.7681 113.057 87.371 113.12C86.81 113.212 86.716 113.237 86.541 113.789L86.465 114.065C86.381 114.366 86.426 114.425 86.74 114.428C88.542 114.448 90.343 114.487 92.144 114.481C93.787 114.475 95.43 114.575 97.067 114.266C98.614 113.975 100.058 113.465 101.376 112.602C103.086 111.481 104.316 109.983 104.965 108.028C105.489 106.449 105.606 104.838 105.428 103.187C105.317 102.062 104.993 100.968 104.474 99.9641ZM101.317 109.625C100.353 111.419 98.915 112.617 96.86 112.933C95.573 113.13 94.284 113.073 93.057 112.586C92.28 112.278 91.991 111.607 91.967 110.814C91.945 110.037 91.934 109.26 91.934 108.482C91.93 105.748 91.93 103.014 91.934 100.281C91.936 99.4201 91.951 98.5571 91.965 97.6951C91.975 97.0891 92.102 96.8861 92.693 96.8371C95.289 96.6191 97.766 96.8991 99.823 98.7261C101.095 99.8561 101.819 101.297 102.12 102.952C102.245 103.642 102.283 104.348 102.361 105.048C102.298 106.646 102.082 108.201 101.317 109.625ZM123.106 106.664C122.594 105.418 121.624 104.637 120.405 104.137C119.989 103.966 119.56 103.825 119.111 103.659L119.268 103.559C119.753 103.248 120.293 102.997 120.711 102.614C121.727 101.683 122.149 100.512 121.951 99.1211C121.763 97.7981 121.103 96.8271 119.924 96.1971C118.854 95.6271 117.7 95.4191 116.506 95.4201C114.44 95.4221 112.373 95.4531 110.307 95.4571C109.595 95.4581 108.883 95.4051 108.171 95.3951C108.033 95.3931 107.828 95.4281 107.769 95.5201C107.606 95.7701 107.498 96.0581 107.382 96.3361C107.315 96.4981 107.381 96.5871 107.566 96.6111C108.063 96.6791 108.559 96.7641 109.057 96.8381C109.745 96.9411 110.078 97.2991 110.12 97.9921L110.129 98.4031C110.13 100.558 110.137 102.713 110.128 104.868C110.115 107.02 110.095 109.172 110.067 111.324C110.064 111.595 110.027 111.867 109.988 112.136C109.929 112.542 109.712 112.822 109.296 112.91L108.119 113.142C107.98 113.17 107.779 113.166 107.722 113.252C107.506 113.575 107.332 113.928 107.356 114.354L107.477 114.387L111.43 114.484L112.223 114.481C113.591 114.465 114.961 114.492 116.327 114.422C117.806 114.348 119.195 113.909 120.479 113.154C121.846 112.349 122.898 111.288 123.272 109.692C123.512 108.673 123.513 107.648 123.106 106.664ZM113.063 97.4831C113.069 97.0501 113.26 96.8621 113.69 96.8511C114.749 96.8221 115.801 96.8281 116.823 97.1931C118.145 97.6651 118.958 98.8051 118.943 100.198C118.936 100.733 118.944 101.263 118.747 101.777C118.358 102.789 117.612 103.323 116.554 103.427C116.002 103.483 115.445 103.489 114.953 103.515L113.311 103.443C113.093 103.435 112.998 103.339 112.999 103.115L113.063 97.4831ZM119.869 110.977C119.34 112.128 118.376 112.733 117.169 112.943C116.207 113.108 115.221 113.065 114.277 112.816C113.571 112.635 113.283 112.068 113.142 111.439C113.047 111.018 113.063 110.517 113.055 110.079C113.042 109.403 113.052 108 113.052 108H113.038C113.038 107 113.041 106.134 113.035 105.175C113.034 104.968 113.069 104.865 113.322 104.873C114.22 104.9 115.121 104.915 116.019 104.95C116.822 104.981 117.574 105.219 118.281 105.6C119.357 106.18 120.005 107.068 120.183 108.288C120.319 109.213 120.261 110.123 119.869 110.977ZM21.282 112.055L21.301 106.618C21.304 105.8 21.2 104.998 20.932 104.222C20.193 102.085 18.155 101.112 16.033 101.879C15.068 102.228 14.203 102.757 13.377 103.357C12.896 103.707 12.896 103.707 12.548 103.208C11.563 101.796 10.156 101.313 8.51802 101.834C7.45902 102.17 6.53302 102.745 5.65602 103.413C5.57402 103.475 5.40902 103.544 5.36002 103.507C5.27802 103.446 5.22102 103.301 5.22302 103.192L5.28302 102.226C5.28802 102.023 5.24902 101.819 5.22902 101.606C4.83302 101.743 4.51702 101.88 4.18602 101.96C3.16302 102.21 2.13302 102.44 1.10402 102.675C0.855018 102.732 0.592018 102.807 0.568018 103.093C0.543018 103.374 0.814018 103.421 1.02402 103.505C1.46602 103.683 1.90502 103.872 2.34202 104.064C2.70902 104.226 2.84602 104.519 2.84402 104.913C2.83702 106.598 2.84802 108.281 2.83802 109.966C2.83402 110.651 2.80202 111.335 2.77102 112.02C2.74302 112.627 2.53602 112.881 1.94802 113.034C1.63602 113.116 1.31902 113.171 1.00502 113.245C0.936018 113.261 0.818018 113.305 0.817018 113.339C0.804018 113.636 0.788018 113.94 0.838018 114.229C0.848018 114.281 1.16202 114.281 1.33602 114.301L1.45302 114.294C2.66502 114.276 3.87702 114.257 5.09002 114.244C5.73302 114.237 6.37502 114.243 7.07302 114.243L7.14802 113.273C6.74802 113.2 6.39102 113.145 6.03902 113.068C5.49002 112.948 5.25602 112.657 5.24202 112.103L5.23202 111.31C5.22602 109.253 5.21802 107.197 5.21802 105.14C5.21802 104.841 5.34202 104.604 5.60502 104.425C6.16202 104.049 6.75002 103.75 7.40102 103.583C8.77302 103.232 9.96302 103.72 10.491 104.887C10.658 105.255 10.789 105.662 10.826 106.062C11.02 108.124 10.936 110.188 10.819 112.25C10.794 112.695 10.585 112.919 10.146 113.028L9.11402 113.246C9.03102 113.267 8.91002 113.211 8.90402 113.28C8.88102 113.565 8.89402 114.002 8.89402 114.002H9.14002L12.282 114.105C13.143 114.103 14.005 114.207 14.865 114.229C15.019 114.232 15.156 114.255 15.165 114.077C15.1749 113.801 15.1712 113.524 15.154 113.248L14.99 113.219L14.105 113.02C13.508 112.879 13.302 112.652 13.3 112.048C13.293 110.559 13.313 109.071 13.3 107.583C13.2924 106.732 13.2607 105.881 13.205 105.032C13.19 104.806 13.225 104.658 13.405 104.531C13.9267 104.15 14.5137 103.867 15.137 103.696C17.072 103.186 18.656 104.247 18.756 106.242C18.854 108.166 18.813 110.097 18.798 112.025C18.793 112.696 18.571 112.899 17.91 113.079L17.682 113.138C17.005 113.3 17.011 113.3 17.051 114.019C17.064 114.244 17.126 114.302 17.366 114.296C18.745 114.265 20.124 114.257 21.503 114.245C22.067 114.24 22.631 114.245 23.245 114.245L23.37 113.309C22.831 113.166 22.334 113.06 21.854 112.903C21.43 112.759 21.28 112.503 21.282 112.055ZM68.771 103.814C69.339 103.287 69.343 102.591 69.184 101.818C68.734 102.289 68.23 102.506 67.655 102.547C66.884 102.602 66.127 102.535 65.409 102.228C63.467 101.394 61.555 101.453 59.649 102.368C58.046 103.136 57.06 104.333 56.961 106.148C56.898 107.311 57.116 108.412 57.892 109.337C58.357 109.891 58.954 110.25 59.627 110.498C59.917 110.605 59.939 110.743 59.696 110.928C59.5166 111.064 59.3307 111.19 59.139 111.308C58.7328 111.563 58.3241 111.815 57.913 112.062C57.672 112.208 57.59 112.394 57.669 112.679C57.9 113.517 58.495 114.001 59.239 114.354L59.51 114.543L59.273 114.78C58.544 115.371 57.786 115.929 57.088 116.556C56.502 117.083 56.313 117.789 56.49 118.568C56.847 120.123 57.878 121.085 59.341 121.527C61.898 122.301 64.299 121.857 66.488 120.342C67.786 119.443 68.717 118.273 69 116.663C69.317 114.854 68.312 113.284 66.513 112.96C65.323 112.744 64.105 112.682 62.901 112.544C62.339 112.48 61.769 112.442 61.222 112.313C60.757 112.203 60.526 111.824 60.569 111.454C60.612 111.09 60.999 110.751 61.442 110.716C62.334 110.644 63.208 110.505 64.03 110.129C66.208 109.133 67.219 107.389 66.966 105.041C66.933 104.725 66.861 104.413 66.796 104.045C67.493 104.162 68.206 104.339 68.771 103.814ZM62.162 114.831C63.048 114.857 64.056 114.912 65.03 115.197C65.887 115.447 66.592 115.885 66.8 116.842C67.051 117.998 66.495 119.148 65.376 119.766C64.328 120.344 63.19 120.392 62.036 120.273C61.048 120.171 60.159 119.829 59.447 119.099C58.509 118.138 58.504 116.808 59.443 115.85C60.282 114.994 60.731 114.817 62.162 114.831ZM64.379 107.869C63.863 109.52 62.361 109.748 61.184 109.22C60.181 108.771 59.744 107.887 59.515 106.878C59.426 106.49 59.405 106.087 59.353 105.69C59.374 105.121 59.468 104.575 59.713 104.063C60.464 102.486 62.309 102.58 63.33 103.294C63.768 103.6 64.073 104.016 64.264 104.509C64.6892 105.582 64.7298 106.769 64.379 107.869ZM55.009 113.132C54.6517 113.077 54.2986 112.999 53.952 112.896C53.344 112.71 53.27 112.596 53.263 111.953C53.245 110.161 53.233 108.369 53.213 106.578C53.203 105.772 53.107 104.977 52.86 104.207C52.21 102.177 50.219 101.087 48.227 101.686C47.123 102.019 46.175 102.638 45.292 103.365L44.97 103.612L44.971 103.281C44.992 102.9 45.033 102.519 45.03 102.138C45.028 101.939 44.952 101.739 44.915 101.564C44.162 101.791 43.487 102.019 42.798 102.193C42.107 102.367 41.402 102.485 40.703 102.627C40.356 102.697 40.101 102.907 40.107 103.146C40.116 103.483 40.395 103.548 40.639 103.649C41.081 103.83 41.522 104.013 41.959 104.207C42.271 104.346 42.398 104.604 42.395 104.939C42.373 107.268 42.359 109.598 42.325 111.928C42.315 112.664 42.129 112.858 41.405 113.02L41.089 113.083C40.419 113.198 40.4 113.225 40.446 113.932L40.45 114.049C40.442 114.321 40.561 114.409 40.841 114.406C42.621 114.385 44.402 114.375 46.182 114.382C46.945 114.385 47.027 114.325 47.011 113.541L46.975 113.204C46.539 113.131 46.122 113.078 45.714 112.988C45.287 112.893 45.134 112.718 45.094 112.284C45.057 111.887 45.045 111.484 45.041 111.084C45.021 109.253 45.005 107.422 44.996 105.592C44.994 105.131 45.079 104.703 45.503 104.406C46.1271 103.96 46.8628 103.696 47.628 103.644C49.216 103.535 50.423 104.476 50.509 106.059C50.615 108.012 50.583 109.972 50.608 111.929C50.61 112.075 50.584 112.222 50.564 112.367C50.526 112.653 50.386 112.868 50.096 112.942C49.813 113.016 49.526 113.082 49.237 113.126C48.806 113.19 48.797 113.187 48.764 113.622L48.775 113.915C48.826 114.421 48.827 114.406 49.339 114.401C51.061 114.387 52.782 114.378 54.503 114.38C55.223 114.382 55.274 114.348 55.28 113.606L55.278 113.43C55.289 113.24 55.204 113.163 55.009 113.132ZM79.061 101.809C77.256 101.368 75.544 101.696 73.918 102.537C72.338 103.354 71.282 104.617 70.88 106.361C70.474 108.124 70.668 109.844 71.447 111.481C71.954 112.544 72.734 113.366 73.796 113.9C76.282 115.152 79.323 114.584 81.273 112.909C82.812 111.588 83.377 109.829 83.411 107.652C83.39 107.434 83.369 107.014 83.311 106.598C82.984 104.228 81.343 102.367 79.061 101.809ZM80.428 110.964C79.949 112.85 78.318 113.688 76.478 113.04C75.539 112.71 74.837 112.079 74.365 111.226C73.279 109.266 73.07 107.182 73.688 105.044C74.1 103.62 75.272 102.841 76.666 102.939C77.912 103.026 78.87 103.624 79.573 104.638C80.314 105.708 80.6 106.925 80.676 108.203C80.689 108.408 80.678 108.613 80.678 108.819L80.766 108.829C80.656 109.542 80.604 110.269 80.428 110.964ZM33.664 101.778C31.765 101.344 29.986 101.773 28.338 102.738C26.913 103.572 25.992 104.818 25.639 106.446C25.308 107.967 25.443 109.462 25.982 110.919C26.31 111.807 26.807 112.588 27.536 113.197C29.071 114.478 30.865 114.802 32.774 114.445C34.39 114.142 35.81 113.424 36.842 112.081C37.808 110.825 38.176 109.383 38.214 107.82C38.157 107.325 38.143 106.821 38.038 106.338C37.516 103.927 36.106 102.335 33.664 101.778ZM35.213 110.958C34.75 112.834 33.093 113.693 31.266 113.045C30.093 112.628 29.329 111.769 28.846 110.668C28.072 108.899 27.914 107.058 28.415 105.192C28.799 103.765 29.956 102.714 31.727 102.966C32.814 103.12 33.662 103.675 34.294 104.558C35.148 105.749 35.429 107.113 35.468 108.546V108.839L35.54 108.85C35.435 109.554 35.383 110.27 35.213 110.958Z" fill="#4FAA41"/>
</svg>