<svg xmlns="http://www.w3.org/2000/svg" width="128" height="43" viewBox="0 0 128 43" fill="none">
  <path d="M37.2 8.00019V8.4002C37.2 8.7002 37.1 8.90019 37.1 9.10019C37 9.30019 37 9.60019 36.9 9.80019C36.8 10.0002 36.7 10.3002 36.6 10.5002C36.5 10.7002 36.4 11.0002 36.3 11.2002C36.2 11.4002 36 11.6002 35.9 11.8002C35.8 12.0002 35.6 12.2002 35.4 12.4002C35.2 12.6002 35.1 12.8002 34.9 13.0002L34.6 13.3002C34.5 13.4002 34.4 13.4002 34.3 13.5002C34.1 13.7002 33.9 13.8002 33.7 13.9002C33.5 14.0002 33.3 14.2002 33 14.3002C32.8 14.4002 32.5 14.5002 32.3 14.6002C32.1 14.7002 31.8 14.8002 31.6 14.8002C31.4 14.9002 31.1 14.9002 30.9 15.0002C30.6 15.0002 30.4 15.1002 30.1 15.1002H28.8C28.5 15.1002 28.3 15.0002 28 15.0002C27.7 15.0002 27.5 14.9002 27.3 14.8002C27.5 14.8002 27.8 14.8002 28 14.7002C28.3 14.7002 28.5 14.6002 28.7 14.5002C28.9 14.4002 29.2 14.4002 29.4 14.3002C29.6 14.2002 29.9 14.1002 30.1 14.0002C30.3 13.9002 30.5 13.8002 30.8 13.6002C31 13.5002 31.2 13.3002 31.4 13.2002C31.6 13.0002 31.8 12.9002 32 12.7002L32.5 12.2002C32.7 12.0002 32.8 11.8002 33 11.6002C33 11.6002 33 11.5002 33.1 11.5002C33.2 11.3002 33.3 11.1002 33.4 11.0002C33.5 10.8002 33.6 10.6002 33.7 10.3002C33.8 10.1002 33.9 9.80019 34 9.60019C34.1 9.40019 34.1 9.1002 34.2 8.9002C34.2 8.6002 34.3 8.4002 34.3 8.2002V7.4002V6.9002C34.3 6.6002 34.2 6.4002 34.2 6.2002C34.2 5.9002 34.1 5.70019 34 5.50019C33.9 5.30019 33.8 5.00019 33.8 4.80019C33.7 4.60019 33.6 4.30019 33.5 4.10019C33.4 3.90019 33.3 3.7002 33.1 3.4002C33 3.2002 32.8 3.00019 32.7 2.80019C32.5 2.60019 32.4 2.4002 32.2 2.2002L31.9 1.9002C31.4 1.5002 30.9 1.10019 30.3 0.800194C30.2 0.800194 30.2 0.700195 30.1 0.700195C29.7 0.500195 29.4 0.300195 29 0.200195V0.800194C29 0.900194 29 1.00019 28.9 1.10019C28.9 1.20019 28.8 1.3002 28.8 1.4002C28.8 1.5002 28.7 1.6002 28.7 1.7002L28.6 1.80019C28.6 1.80019 28.6 1.9002 28.5 1.9002C28.4 2.0002 28.4 2.10019 28.3 2.10019L28.1 2.30019L27.9 2.50019C27.7 2.70019 27.4 2.80019 27.2 3.00019C27.1 3.10019 27 3.1002 27 3.2002L26.8 3.4002L26.6 3.60019L26.4 3.80019C26.3 3.90019 26.3 4.00019 26.2 4.00019C26.2 4.10019 26.1 4.20019 26.1 4.30019C26.1 4.40019 26 4.50019 26 4.60019C26 4.70019 25.9 4.8002 25.9 4.9002V5.9002C25.9 6.0002 25.9 6.1002 26 6.2002C26 6.3002 26.1 6.40019 26.1 6.50019C26.1 6.60019 26.2 6.6002 26.2 6.7002L23.6 5.7002C23.2 5.6002 22.7 5.5002 22.3 5.4002C22.1 5.3002 21.8 5.3002 21.6 5.2002C20.9 5.1002 20.2 5.0002 19.6 4.9002H19.5C18.8 4.8002 18.2 4.80019 17.5 4.80019C17 4.80019 16.5 4.8002 16 4.9002C15.3 4.9002 14.6 5.00019 14 5.10019C13.8 5.10019 13.7 5.2002 13.5 5.2002C13.2 5.3002 12.8 5.3002 12.5 5.4002C12.3 5.4002 12.2 5.50019 12 5.50019C11.8 5.60019 11.7 5.6002 11.5 5.7002C11.4 5.8002 11.3 5.8002 11.1 5.9002H11C10.9 6.0002 10.8 6.00019 10.7 6.10019H10.6C10.5 6.20019 10.4 6.20019 10.3 6.30019C10.2 6.30019 10.1 6.4002 10.1 6.4002C10.1 6.4002 10 6.40019 10 6.50019C9.9 6.60019 9.8 6.6002 9.7 6.7002C9.6 6.8002 9.5 6.8002 9.4 6.9002C9.3 7.0002 9.2 7.00019 9.2 7.10019C9.1 7.10019 9.1 7.20019 9 7.30019C8.9 7.30019 8.9 7.4002 8.8 7.4002H8.7C8.6 7.4002 8.6 7.50019 8.5 7.50019L8.3 7.7002L8.1 7.9002C8 7.7002 8 7.70019 7.9 7.80019C7.9 7.80019 7.8 7.8002 7.8 7.9002L7.6 8.10019V8.2002L7.3 8.50019C7.1 8.70019 6.9 8.90019 6.7 9.00019C6.5 9.20019 6.3 9.30019 6.1 9.50019C5.9 9.70019 5.7 9.8002 5.4 9.9002C5.2 10.0002 5 10.1002 4.7 10.2002C4.5 10.3002 4.2 10.4002 4 10.5002C3.5 10.6002 3 10.8002 2.6 10.8002H2.3C2.2 10.8002 2.1 10.8002 2 10.9002C2 11.0002 1.9 11.0002 1.8 11.0002C1.7 11.0002 1.6 11.1002 1.5 11.1002C1.4 11.2002 1.3 11.2002 1.3 11.3002C1.2 11.4002 1.1 11.4002 1.1 11.5002C1 11.6002 0.9 11.6002 0.9 11.7002L0.7 11.9002C0.6 12.0002 0.6 12.1002 0.5 12.2002C0.4 12.3002 0.4 12.4002 0.3 12.5002C0.3 12.6002 0.2 12.7002 0.2 12.8002C0.2 12.9002 0.1 13.0002 0.1 13.1002C0.1 13.2002 0.1 13.3002 0 13.4002V14.2002C0 14.3002 0 14.3002 0.1 14.4002C0.1 14.5002 0.2 14.5002 0.2 14.6002C0.2 14.7002 0.3 14.7002 0.3 14.8002L0.5 15.0002L0.7 15.2002C1 15.4002 1 15.5002 1.4 15.7002C1.5 15.7002 1.5 15.8002 1.6 15.8002V15.9002C1.6 16.0002 1.6 16.1002 1.7 16.2002C1.7 16.3002 1.8 16.4002 1.8 16.5002C1.8 16.6002 1.9 16.6002 1.9 16.7002V16.8002C1.9 16.9002 2 17.0002 2 17.0002C2.1 17.1002 2.1 17.2002 2.2 17.2002L2.4 17.4002L2.6 17.6002L2.8 17.8002C2.9 17.9002 3 17.9002 3 17.9002C3.1 17.9002 3.2 18.0002 3.3 18.0002H3.7V19.4002C4 19.7002 4.5 19.0002 5 18.2002C4.9 19.0002 4.9 19.9002 5 20.1002C5.1 20.4002 5.8 19.5002 6.4 18.5002C14.3 16.7002 21.6 22.1002 22.3 29.9002C22.2 28.7002 20.7 28.0002 20 28.2002C19.7 29.0002 19.1 30.1002 18.2 30.7002C18.3 30.0002 18.2 29.2002 18.1 28.5002C17.9 29.5002 17.4 30.5002 16.7 31.3002C15.6 31.4002 14.6 30.9002 14 30.1002L13.9 30.0002C13.9 29.9002 13.8 29.8002 13.8 29.8002C13.8 29.7002 13.7 29.6002 13.7 29.6002V29.4002V29.2002C13.7 29.1002 13.7 29.0002 13.8 29.0002C13.8 28.9002 13.8 28.8002 13.9 28.8002C13.9 28.7002 14 28.6002 14 28.6002C14.2 28.1002 14.2 27.6002 13.8 27.4002C13.7 27.4002 13.7 27.3002 13.6 27.3002H13.5H13.4C13.3 27.3002 13.2 27.3002 13.2 27.2002H12.2C12.1 27.2002 12 27.2002 12 27.3002C11.9 27.3002 11.9 27.4002 11.8 27.4002C11.7 27.4002 11.7 27.5002 11.6 27.5002C8.7 29.0002 10.3 33.0002 12 34.1002C11.3 34.2002 10.6 34.4002 10.5 34.5002C11 34.8002 11.5 35.0002 12 35.2002C12.7 35.4002 13.5 35.6002 13.8 35.7002C14.7 35.9002 15.7 36.0002 16.6 35.9002C21.6 35.6002 25.6 31.8002 26.4 26.8002C26.4 26.9002 26.4 27.0002 26.5 27.1002C26.5 27.3002 26.6 27.5002 26.6 27.7002V30.8002C26.6 30.9002 26.6 31.0002 26.5 31.1002C26.5 31.2002 26.5 31.3002 26.4 31.4002C26.4 31.5002 26.4 31.6002 26.3 31.7002C26.3 31.8002 26.2 31.9002 26.2 32.0002C26.2 32.1002 26.1 32.2002 26.1 32.3002C26.1 32.4002 26 32.5002 26 32.6002C26 32.7002 25.9 32.8002 25.9 32.9002C25.9 33.0002 25.8 33.1002 25.8 33.2002C25.8 33.3002 25.7 33.4002 25.7 33.5002V33.6002C25 35.1002 23.9 36.4002 22.6 37.4002C22.5 37.5002 22.4 37.5002 22.3 37.6002C22.3 37.6002 22.2 37.6002 22.2 37.7002C22.1 37.8002 22 37.8002 22 37.9002V38.0002C22.2 38.0002 22.3 38.0002 22.5 37.9002C22.8 37.9002 23.1 37.8002 23.4 37.7002C23.5 37.7002 23.6 37.7002 23.6 37.6002H24C24.1 37.6002 24.1 37.6002 24.2 37.5002C25.3 37.2002 26.4 36.9002 27.4 36.4002C25.6 38.8002 23.2 40.8002 20.5 42.1002C21.8 42.0002 23.1 41.8002 24.3 41.4002C28.8 40.1002 32.6 37.0002 34.9 33.0002C34.4 35.6002 33.4 38.0002 31.9 40.2002C33 39.5002 34 38.7002 34.9 37.7002C37.4 35.1002 39 31.8002 39.6 28.2002C40 30.0002 40.1 31.8002 39.9 33.6002C47.7 22.8002 40.3 11.1002 37.2 8.00019ZM75.2 28.0002C75.6 17.7002 74.8 16.8002 74.8 16.8002C70.3 9.50019 62.9 16.8002 62.9 16.8002V12.6002H61.8C60.3 15.3002 56 15.8002 56 15.8002V16.9002C58.8 17.5002 58.5 18.8002 58.5 18.8002C58.5 18.8002 58.6 25.5002 58.6 27.6002C58.6 29.7002 57.9 29.3002 57.9 29.3002L56 29.7002V30.9002C58 30.3002 65.1 30.9002 65.1 30.9002L65.2 29.7002C63.1 29.4002 62.9 28.1002 62.9 28.1002V18.2002C64.8 16.5002 66.6 15.9002 66.6 15.9002C70.3 15.0002 70.6 18.6002 70.6 18.6002L70.7 27.7002C71.4 30.1002 67.9 29.7002 67.9 29.7002L68 30.9002L73.5 30.5002L77.2 30.9002V29.7002C75.4 29.4002 75.3 29.4002 75.2 28.0002ZM88.2 13.2002C80.2 13.2002 79.8 20.4002 79.8 20.4002C79.8 20.4002 78.4 31.3002 88.2 31.3002C94.5 31.3002 96.4 27.7002 96.4 27.7002L95.2 26.6002C95.2 26.6002 85.8 33.4002 84.6 20.5002H96.5C96.4 20.4002 96.2 13.2002 88.2 13.2002ZM91.9 19.1002H84.5V18.6002C84.5 16.5002 86.2 14.7002 88.4 14.7002C90.3 14.7002 91.9 16.3002 91.9 18.2002V19.1002ZM109.4 20.7002C106.7 20.2002 104.9 19.5002 104.9 19.5002C104.9 19.5002 100.7 17.8002 104.4 15.3002C108.5 13.2002 110.9 19.2002 110.9 19.2002C110.9 19.2002 111.8 19.4002 112.4 18.9002C112.6 18.3002 111.9 14.7002 111.9 14.7002C111.9 14.7002 110.6 13.1002 104.1 13.6002C104.1 13.6002 100.6 14.4002 100 17.7002C99.4 21.0002 101.5 22.8002 101.5 22.8002C101.5 22.8002 102.4 24.1002 105.5 24.4002C108.2 24.7002 109.4 25.8002 109.4 25.8002C109.4 25.8002 110.8 27.1002 109.3 28.7002C107.8 30.3002 105.8 29.7002 105.8 29.7002C105.8 29.7002 103.5 29.8002 100.8 25.1002L99.5 25.2002L100 29.9002C100 29.9002 106.4 33.5002 111.3 29.9002C116.3 25.4002 112.1 21.2002 109.4 20.7002ZM127.1 27.6002C124 30.2002 123.4 27.1002 123.4 27.1002V16.5002H127.6V14.5002H123.6V10.2002H122.3C120.5 14.0002 116.5 15.3002 116.5 15.3002V16.1002C116.5 16.6002 116.9 16.6002 116.9 16.6002H118.9C118.9 16.6002 118.7 24.3002 118.8 27.0002C118.9 29.7002 120.8 30.5002 120.8 30.5002C120.8 30.5002 122.1 31.2002 124.2 31.0002C126.3 30.8002 127.8 28.7002 127.8 28.7002L127.1 27.6002Z" fill="#DF234F"/>
</svg>