<svg xmlns="http://www.w3.org/2000/svg" width="96" height="99" viewBox="0 0 96 99" fill="none">
  <path fill-rule="evenodd" clip-rule="evenodd" d="M50.4089 96.219C52.2009 97.701 54.3019 98.333 56.5699 98.45C57.5079 98.499 58.4729 98.453 59.3959 98.285C60.8599 98.019 62.3199 97.685 63.7439 97.256C66.6439 96.381 69.1499 94.869 71.0209 92.427C72.0869 91.035 72.9619 89.53 73.5239 87.866C73.9879 86.493 74.4239 85.106 74.7709 83.701C75.0449 82.594 75.1809 81.451 75.3469 80.32C75.4579 79.572 75.5249 78.816 75.5939 78.061C75.7059 76.836 75.8229 75.613 75.9039 74.385C75.9609 73.531 75.9589 72.673 75.9919 71.818C76.0029 71.557 76.0449 71.298 76.0699 71.039C76.0909 70.798 76.2129 70.715 76.4589 70.719C77.3229 70.732 78.1889 70.754 79.0519 70.715C80.0189 70.672 80.9929 70.63 81.9449 70.471C83.2997 70.2441 84.6437 69.9572 85.9729 69.611C87.5409 69.2 88.9799 68.465 90.3659 67.629C91.9779 66.654 93.4499 65.511 94.6409 64.038C95.6799 62.756 96.1719 61.27 95.9209 59.649C95.5569 57.294 93.5779 55.751 91.2769 55.646C90.4429 55.608 89.5969 55.696 88.7669 55.801C87.7619 55.929 86.7719 56.155 85.7699 56.304C85.0779 56.408 84.3769 56.454 83.6869 56.526L83.6679 56.436C84.9579 53.999 86.3019 51.59 87.5219 49.12C88.4589 47.224 89.2589 45.261 90.0859 43.311C91.4559 40.083 92.5489 36.756 93.4549 33.373C94.3219 30.135 95.0639 26.862 95.2989 23.502C95.3929 22.161 95.4579 20.814 95.4489 19.471C95.4429 18.399 95.3269 17.326 95.2199 16.258C95.0979 15.034 94.7279 13.874 94.2159 12.758C93.5419 11.286 92.4949 10.079 91.3939 8.933C90.5129 8.015 89.5429 7.179 88.5819 6.343C87.2109 5.151 85.6689 4.198 84.0689 3.353C82.2553 2.38965 80.3339 1.64446 78.3449 1.133C77.133 0.827419 75.9132 0.553658 74.6869 0.312C74.2509 0.224 73.8109 0 73.3719 0H65.1039C64.8049 0 64.5089 0.196 64.2079 0.229C62.2292 0.444984 60.2754 0.848463 58.3729 1.434C57.6629 1.653 57.0149 1.525 56.3399 1.462C55.8219 1.414 55.3129 1.281 54.7949 1.255C52.8239 1.157 50.8509 1.015 48.8789 1.036C46.9909 1.056 45.1219 1.368 43.2949 1.886C41.7659 2.322 40.2689 2.851 38.8969 3.656C38.3109 4 37.8449 3.935 37.2379 3.761C35.1994 3.1638 33.1431 2.62888 31.0719 2.157C29.7809 1.868 28.4519 1.722 27.1329 1.586C25.8671 1.45452 24.5963 1.37545 23.3239 1.349C22.0819 1.322 20.8319 1.323 19.5949 1.433C17.6259 1.608 15.6949 2.008 13.8169 2.654C11.7468 3.36177 9.81242 4.41721 8.09694 5.775C6.34694 7.16 4.94294 8.849 3.81594 10.78C2.62694 12.817 1.80994 14.998 1.30394 17.287C1.02894 18.528 1.12994 19.804 0.940941 21.064C0.882941 21.454 0.999941 21.846 0.999941 22.238V27.723C0.999941 28.087 0.892941 28.452 0.938941 28.818C1.05194 29.697 1.01294 30.583 1.16194 31.456C1.39594 32.838 1.60694 34.215 1.89094 35.587C2.28794 37.504 2.66694 39.419 3.10694 41.327C3.42694 42.716 3.77394 44.097 4.15494 45.47C4.73494 47.568 5.30094 49.669 5.95794 51.742C6.56894 53.669 7.26494 55.568 7.95994 57.468C8.91225 60.0953 10.0795 62.6395 11.4499 65.075C12.6449 67.186 14.0079 69.163 15.8379 70.788C17.0449 71.86 18.3859 72.683 19.9469 73.095C21.1663 73.4189 22.4444 73.4545 23.6799 73.199C25.1122 72.9079 26.4502 72.2673 27.5749 71.334C27.7069 71.227 27.8499 71.144 28.0069 71.342C28.6009 72.094 29.3949 72.596 30.2259 73.029C32.4679 74.199 34.9109 74.55 37.3919 74.692C37.9939 74.726 38.5999 74.64 39.2049 74.624C40.3859 74.591 41.5319 74.361 42.6589 74.035C43.2509 73.864 43.8279 73.646 44.4299 73.444C44.4609 74.085 44.5009 74.701 44.5209 75.318L44.6039 78.681C44.6199 79.193 44.6399 79.705 44.6869 80.215C44.8089 81.529 44.9279 82.843 45.0849 84.153C45.1929 85.056 45.3069 85.965 45.5189 86.847C45.9451 88.6244 46.5281 90.3606 47.2609 92.035C47.9625 93.6602 49.0417 95.0946 50.4089 96.219ZM46.8179 79.451C46.7469 77.872 46.6939 76.2922 46.6589 74.712C46.6169 72.77 46.6029 70.827 46.5759 68.885L46.5709 68.811C45.5839 69.404 44.6109 70.052 43.5819 70.587C42.3749 71.214 41.0649 71.577 39.7079 71.68C38.6449 71.76 37.5659 71.833 36.5079 71.749C34.7719 71.608 33.0359 71.337 31.4819 70.481C30.8519 70.134 30.1939 69.711 29.7589 69.158C28.7179 67.829 29.2169 66.15 30.7869 65.342C31.8719 64.782 33.0559 64.549 34.2319 64.277C35.2556 64.0449 36.2686 63.768 37.2679 63.447C38.2539 63.124 38.8759 62.324 39.4909 61.539L40.4649 60.287L39.2939 60.165C38.1319 60.057 37.0229 59.736 35.9629 59.266C35.0569 58.865 35.0429 58.821 34.3769 59.543C33.2669 60.748 32.1869 61.983 31.0979 63.209C30.2969 64.111 29.5019 65.018 28.7029 65.923C27.9149 66.818 27.1749 67.763 26.3239 68.595C25.0619 69.831 23.5399 70.574 21.7239 70.49C20.5589 70.436 19.4929 70.028 18.5329 69.361C16.5539 67.983 15.2209 66.053 14.0059 64.028C12.4509 61.432 11.2559 58.667 10.2349 55.827C9.52794 53.863 8.81694 51.898 8.20094 49.906C7.52994 47.741 6.94094 45.551 6.36194 43.359C5.92394 41.706 5.53594 40.039 5.16594 38.369C4.73999 36.4707 4.34594 34.5655 3.98394 32.654C3.74294 31.363 3.60394 30.053 3.40894 28.754C3.14594 27.001 3.09794 25.234 3.19394 23.475C3.27894 21.89 3.50594 20.31 3.73194 18.736C4.04494 16.558 4.76294 14.503 5.79494 12.562C6.43155 11.3792 7.21178 10.2795 8.11794 9.288C9.60794 7.639 11.4109 6.448 13.4169 5.553C14.8179 4.928 16.2989 4.553 17.8079 4.258C20.0479 3.822 22.3079 3.84 24.5679 3.886C25.5559 3.907 26.5409 4.086 27.5279 4.185C29.6539 4.396 31.7369 4.844 33.7939 5.395C35.2939 5.797 36.7629 6.319 38.2489 6.771C38.3969 6.816 38.6159 6.812 38.7389 6.733C40.7539 5.417 42.9549 4.549 45.2979 4.052C46.1869 3.864 47.1049 3.781 48.0139 3.723C49.1179 3.654 50.2329 3.588 51.3349 3.653C52.6599 3.729 53.9809 3.924 55.2979 4.104C55.9379 4.192 56.5619 4.413 57.2019 4.473C57.5099 4.502 57.8349 4.279 58.1589 4.203C59.8129 3.82 61.4599 3.395 63.1289 3.094C64.3709 2.87 65.6409 2.764 66.9029 2.692C68.3129 2.611 69.7309 2.552 71.1389 2.62C72.9189 2.706 74.6859 2.959 76.4299 3.365C78.5919 3.868 80.6639 4.598 82.6349 5.612C84.1079 6.371 85.5069 7.249 86.7679 8.329C87.5939 9.038 88.4399 9.737 89.1849 10.527C90.1049 11.501 91.0429 12.474 91.6209 13.721C92.0559 14.662 92.3659 15.636 92.4519 16.665C92.5579 17.946 92.6869 19.231 92.6759 20.514C92.6649 21.74 92.4969 22.965 92.3789 24.189C92.1079 26.977 91.5029 29.705 90.7659 32.397C90.151 34.6206 89.4542 36.8208 88.6769 38.993C87.9679 40.996 87.1489 42.962 86.3219 44.921C85.7124 46.3714 85.0506 47.7994 84.3379 49.202C82.9839 51.854 81.5759 54.479 79.9469 56.979C79.6659 57.41 79.3989 57.852 79.1249 58.293C79.8359 58.772 80.6409 58.941 81.4509 59.029C82.2219 59.112 83.0079 59.163 83.7779 59.105C85.0109 59.013 86.2399 58.837 87.4659 58.666C88.6799 58.496 89.8689 58.151 91.1169 58.242C92.3609 58.333 93.2529 59.279 93.1679 60.445C93.1139 61.183 92.7749 61.816 92.2849 62.357C89.9699 64.911 87.0639 66.459 83.7399 67.222C82.4769 67.512 81.1749 67.661 79.8819 67.782C78.7778 67.8795 77.6685 67.9055 76.5609 67.86C75.7489 67.83 74.9439 67.644 74.1139 67.524C74.0299 68.283 73.9509 69.074 73.8549 69.862L73.4679 72.885C73.3509 73.843 73.2599 74.805 73.1389 75.763C73.0209 76.693 72.8739 77.618 72.7499 78.547C72.6349 79.412 72.5499 80.282 72.4199 81.146C72.2229 82.47 72.0339 83.797 71.7749 85.111C71.4649 86.681 70.9909 88.201 70.2139 89.618C69.2679 91.347 67.9269 92.664 66.2189 93.639C64.4589 94.644 62.5339 95.167 60.5849 95.605C59.2029 95.916 57.7819 95.966 56.3829 95.839C53.9579 95.62 51.8879 94.583 50.3229 92.702C48.8299 90.907 47.8189 88.851 47.4579 86.522C47.288 85.4138 47.1559 84.3002 47.0619 83.183C46.9537 81.9409 46.8723 80.6966 46.8179 79.451ZM49.5439 63.497C49.5589 64.327 49.4729 65.157 49.4769 65.987C49.4939 69.85 49.5219 73.714 49.5549 77.578C49.5609 78.209 49.5919 78.842 49.6369 79.472C49.7319 80.792 49.8259 82.113 49.9539 83.429C50.0459 84.364 50.1709 85.296 50.3179 86.224C50.5279 87.537 51.1259 88.707 51.8039 89.826C52.3879 90.788 53.1489 91.604 54.1499 92.168C55.8519 93.125 57.6829 93.205 59.5289 92.853C60.7759 92.616 62.0019 92.233 63.2119 91.838C64.4029 91.4561 65.4902 90.8057 66.3899 89.937C67.2389 89.115 67.8409 88.112 68.2469 87.005C69.0339 84.859 69.2809 82.598 69.6059 80.356C69.7279 79.516 69.8339 78.674 69.9449 77.833C70.0719 76.876 70.1999 75.92 70.3219 74.963C70.4139 74.249 70.4959 73.536 70.5829 72.823C70.7079 71.799 70.8389 70.776 70.9579 69.752C71.0489 68.96 71.1249 68.165 71.2069 67.371C71.3109 66.356 71.4219 65.344 71.5129 64.327C71.5809 63.557 71.5529 62.772 71.6899 62.015C71.9409 60.628 72.5969 59.448 73.8269 58.684C74.3409 58.366 74.9229 58.156 75.4929 57.886L75.3949 57.737C74.8679 57.053 74.3279 56.38 73.8109 55.688C72.9989 54.602 72.4149 53.391 71.8279 52.174C71.2719 51.02 70.5919 49.928 70.0069 48.787C68.9859 46.797 67.9459 44.812 67.0049 42.785C65.8219 40.235 64.8899 37.597 64.5969 34.773C64.4719 33.579 64.4399 32.385 64.6829 31.202C65.0699 29.312 66.0559 27.834 67.7159 26.82C69.2559 25.88 70.9709 25.576 72.7279 25.481C73.8179 25.422 74.9149 25.47 76.0459 25.47L76.0089 25.279C75.3049 23.807 74.6479 22.31 73.8769 20.874C72.7909 18.846 71.3989 17.018 69.8509 15.321C68.7086 14.0592 67.4534 12.9044 66.1009 11.871C64.7629 10.858 63.3529 9.953 61.8479 9.214C60.0601 8.32468 58.1719 7.65321 56.2239 7.214C54.3389 6.796 52.4439 6.54 50.5099 6.519C48.8619 6.501 47.2239 6.577 45.6179 6.948C43.1939 7.509 40.9769 8.507 39.0499 10.123C37.9826 11.0177 37.0291 12.04 36.2109 13.167C35.2439 14.492 34.4659 15.926 33.7999 17.427C32.8859 19.488 32.2589 21.631 31.8289 23.835C31.6149 24.935 31.4469 26.042 31.2759 27.149C31.2159 27.538 31.2119 27.933 31.1759 28.378L31.9079 27.997L32.6219 27.677C35.0389 26.572 37.5419 25.861 40.2319 25.942C41.3759 25.976 42.4679 26.203 43.4859 26.704C45.4359 27.666 46.5759 29.301 47.0719 31.369C47.4139 32.797 47.6489 34.253 47.8769 35.706C48.0549 36.84 48.2379 37.986 48.2579 39.13C48.2869 40.802 48.2029 42.478 48.1119 44.149C48.0341 45.5699 47.7401 46.9707 47.2399 48.303C46.3359 50.719 45.3279 53.096 44.3869 55.498C44.0759 56.292 43.8369 57.113 43.5439 57.986L44.7319 57.987C44.8759 57.99 45.0229 57.994 45.1619 58.027C46.2429 58.282 47.1819 58.772 47.9509 59.604C48.9789 60.708 49.5169 62 49.5439 63.497ZM28.8969 52.042C28.2842 50.6001 27.9145 49.0667 27.8029 47.504C27.6989 46.03 27.8739 44.564 28.0259 43.096C28.1719 41.675 28.2959 40.247 28.3379 38.821C28.4089 36.474 28.2509 34.133 28.1389 31.788C28.0719 30.392 28.2339 28.979 28.3579 27.58C28.4699 26.32 28.6099 25.057 28.8489 23.815C29.2479 21.731 29.7789 19.677 30.5339 17.686C31.2489 15.798 32.0729 13.961 33.2329 12.306C34.0299 11.17 34.9319 10.111 35.7989 9.001L35.5409 8.909C32.7179 8.013 29.8479 7.311 26.8949 7.006C25.4999 6.861 24.0989 6.777 22.6999 6.693C22.2699 6.668 21.8339 6.726 21.4029 6.767C20.3359 6.87 19.2549 6.91 18.2049 7.11C16.4179 7.45 14.7029 8.022 13.1159 8.953C11.7115 9.77943 10.4802 10.8698 9.48994 12.164C8.38294 13.595 7.63594 15.213 7.10094 16.937C6.46894 18.972 6.16694 21.067 6.08594 23.18C6.01494 25.033 5.97994 26.896 6.29994 28.742C6.53694 30.115 6.69594 31.504 6.95794 32.873C7.31015 34.7396 7.70559 36.5977 8.14394 38.446C8.77694 41.09 9.41094 43.736 10.1619 46.348C10.8799 48.849 11.6889 51.328 12.5689 53.778C13.2869 55.777 14.1179 57.739 14.9929 59.674C15.5629 60.935 16.2529 62.149 16.9769 63.329C17.7459 64.583 18.6219 65.773 19.8079 66.683C21.3069 67.831 22.4659 68.01 23.9899 66.749C24.6419 66.21 25.1929 65.542 25.7609 64.907C26.6619 63.899 27.5319 62.861 28.4299 61.848C29.5729 60.559 30.7299 59.283 31.8789 57.998C32.1219 57.727 32.3569 57.447 32.5929 57.173L32.1999 56.83C30.7832 55.4766 29.659 53.847 28.8969 52.042ZM72.2379 13.639C73.1778 14.7308 74.0693 15.8632 74.9099 17.033C76.5213 19.2925 77.8181 21.7604 78.7649 24.369C79.1849 25.524 79.5209 26.69 79.3709 27.953C79.2669 28.838 79.2739 29.735 79.1969 30.625C79.1319 31.365 79.0139 32.101 78.9189 32.839C78.7749 33.951 78.5669 35.061 78.5049 36.178C78.4449 37.242 78.5079 38.316 78.5749 39.381C78.6419 40.464 78.7879 41.542 78.8869 42.622C78.9989 43.849 79.1509 45.073 79.1849 46.302C79.2129 47.31 79.1229 48.323 79.0359 49.331C78.9242 50.5387 78.6309 51.7227 78.1659 52.843C77.8429 53.637 77.4579 54.405 77.0949 55.199L77.2409 55.353L77.4629 55.525L77.6879 55.125C79.5763 52.1538 81.2541 49.0539 82.7089 45.848C83.6417 43.7787 84.5266 41.6881 85.3629 39.578C86.6669 36.2978 87.7202 32.9235 88.5139 29.484C88.8739 27.94 89.1499 26.372 89.3939 24.804C89.5849 23.578 89.7429 22.338 89.7789 21.101C89.8159 19.789 89.7439 18.467 89.6229 17.159C89.5319 16.171 89.2879 15.177 88.6699 14.372C87.6739 13.079 86.5999 11.843 85.2789 10.864C84.1659 10.041 83.0559 9.194 81.8629 8.502C79.9699 7.403 77.9209 6.673 75.7799 6.175C73.6889 5.688 71.5729 5.478 69.4429 5.433C68.1869 5.406 66.9249 5.541 65.6719 5.66C64.5359 5.766 63.4069 5.948 62.2639 6.098C63.4909 6.788 64.7019 7.402 65.8419 8.125C68.2419 9.645 70.3939 11.474 72.2379 13.639ZM41.0579 56.202C41.8329 53.722 42.8899 51.352 43.9129 48.97C44.7439 47.037 45.1969 45.002 45.3479 42.91C45.4229 41.879 45.4029 40.835 45.3519 39.801C45.3022 38.6506 45.1968 37.5032 45.0359 36.363C44.8209 34.909 44.5769 33.454 44.2329 32.027C43.8599 30.483 42.9199 29.407 41.3079 29.01C40.3269 28.769 39.3509 28.779 38.3579 28.936C35.9349 29.317 33.7169 30.21 31.6509 31.518C31.2349 31.781 31.0049 31.994 31.0779 32.589C31.2299 33.853 31.2629 35.137 31.2569 36.412C31.2489 38.217 31.1719 40.022 31.1039 41.826C31.0819 42.413 30.9969 42.999 30.9329 43.584C30.8369 44.48 30.6499 45.375 30.6559 46.27C30.6619 47.192 30.7559 48.135 30.9799 49.028C31.6909 51.86 33.1949 54.176 35.6619 55.811C37.1789 56.817 38.8569 57.323 40.6999 57.42C40.8219 56.997 40.9349 56.598 41.0579 56.202ZM38.1619 31.913C37.8369 31.232 38.0229 30.667 38.7749 30.405C38.9589 30.342 39.1469 30.272 39.3369 30.254C39.5999 30.228 39.8649 30.247 40.1299 30.247C41.0849 30.253 42.0029 30.386 42.7899 30.992C43.2959 31.382 43.4319 31.897 43.1039 32.429C42.6389 33.182 41.9319 33.56 41.0619 33.632C39.6929 33.745 38.7319 33.107 38.1619 31.913ZM76.1369 31.664L76.4479 28.939C76.4929 28.575 76.3019 28.475 75.9959 28.466C75.0329 28.44 74.0709 28.405 73.1079 28.389C72.0239 28.369 70.9669 28.543 69.9629 28.955C68.8489 29.414 68.0009 30.148 67.6539 31.361C67.4 32.2548 67.3199 33.189 67.4179 34.113C67.5533 35.5427 67.8771 36.9482 68.3809 38.293C69.0549 40.086 69.7589 41.878 70.6019 43.596C71.7429 45.921 73.0329 48.173 74.2449 50.463C74.5679 51.074 74.8419 51.713 75.1789 52.426C75.8595 51.0076 76.231 49.4608 76.2689 47.888C76.3019 46.587 76.1989 45.283 76.1229 43.982C76.0759 43.186 75.9629 42.394 75.8859 41.6C75.7789 40.494 75.6149 39.387 75.5889 38.278C75.5639 37.15 75.6439 36.016 75.7399 34.889C75.8299 33.811 76.0079 32.74 76.1369 31.664ZM73.9679 30.79C73.6099 31.777 72.8459 32.335 71.8539 32.498C70.9299 32.651 70.1199 32.31 69.5179 31.572C69.0889 31.047 69.2529 30.426 69.8959 30.07C70.6339 29.662 71.4449 29.559 72.4019 29.497C72.6629 29.544 73.0529 29.585 73.4249 29.69C73.9639 29.842 74.1639 30.25 73.9679 30.79ZM45.3699 61.193C44.8419 60.761 44.1419 60.736 43.6399 61.21C43.0159 61.8 42.4669 62.474 41.9179 63.138C41.2849 63.906 40.6889 64.704 39.8729 65.299C38.6839 66.164 37.2949 66.522 35.9009 66.861C34.7929 67.131 33.6789 67.382 32.5679 67.64L32.5539 67.784C32.8839 67.936 33.2029 68.127 33.5479 68.236C35.2429 68.772 36.9679 69.04 38.7599 68.888C40.0519 68.777 41.2839 68.495 42.4509 67.942C44.0579 67.181 45.2949 65.974 46.3459 64.572C46.5219 64.338 46.6019 63.992 46.6219 63.69C46.6929 62.624 46.1519 61.831 45.3699 61.193ZM76.3149 60.731C75.4839 61.01 74.8079 61.435 74.6069 62.334C74.4699 62.942 74.4199 63.571 74.3669 64.194C74.3569 64.304 74.4939 64.506 74.5979 64.534C75.2379 64.703 75.8819 64.902 76.5359 64.961C77.3409 65.034 78.1589 65.011 78.9689 64.971C79.8429 64.927 80.7229 64.87 81.5849 64.726C83.6139 64.384 85.5789 63.83 87.3229 62.678C87.9529 62.263 88.5749 61.839 89.2009 61.417L89.1489 61.328C88.4819 61.427 87.8169 61.548 87.1469 61.619C85.7829 61.765 84.4179 61.919 83.0489 61.998C82.3879 62.036 81.7179 61.909 81.0519 61.855C79.9339 61.764 78.8419 61.516 77.8969 60.918C77.3519 60.574 76.8959 60.536 76.3149 60.731Z" fill="#336791"/>
</svg>