<svg xmlns="http://www.w3.org/2000/svg" width="120" height="125" viewBox="0 0 120 125" fill="none">
  <path d="M77.1002 101.1C72.1002 101.1 68.7002 104.7 68.7002 109.7C68.7002 114.4 72.1002 118.3 77.1002 118.3C82.0002 118.3 85.4002 114.4 85.4002 109.7C85.4002 104.7 82.1002 101.1 77.1002 101.1ZM77.1002 115.8C73.5002 115.8 72.0002 112.6 72.0002 109.7C72.0002 106.6 73.9002 103.6 77.1002 103.6C80.3002 103.6 82.2002 106.6 82.2002 109.7C82.2002 112.6 80.6002 115.8 77.1002 115.8ZM61.0002 100.2V101H57.0002V102.7C57.0002 103.4 57.7002 103.9 58.4002 103.9H61.0002V117.9H62.6002C63.3002 117.9 64.0002 117.2 64.0002 116.6V104H67.0002C67.7002 104 68.0002 103.3 68.0002 102.6V101H64.0002V99.9C64.0002 97.7 64.3002 96 66.9002 96H67.0002C67.7002 96.1 68.3002 95.5 68.4002 94.7L68.5002 93.7C67.9002 93.6 67.3002 93.5 66.5002 93.5C62.0002 93.6 61.0002 96.2 61.0002 100.2ZM28.1002 101.2V101.3C27.5002 101.3 26.8002 101.8 26.6002 102.4L22.4002 115H22.3002L18.2002 102.5C17.9002 101.9 17.3002 101.2 16.7002 101.2V101H14.6002L20.2002 116.5C20.4002 117 20.8002 118 20.8002 118.4C20.8002 118.7 19.9002 122.5 17.2002 122.5H17.0002C16.3002 122.5 15.8002 123 15.7002 123.7L15.6002 124.8C16.1002 124.9 16.7002 125 17.7002 125C21.7002 125 22.9002 121.1 24.0002 118L30.0002 101H28.1002V101.2ZM8.9002 104.8C6.4002 103.5 3.7002 102.7 3.6002 100.1C3.6002 97.4 6.1002 96.7 8.0002 96.7C8.8002 96.7 9.5002 96.8 10.2002 96.9C10.9002 97 11.5002 96.4 11.6002 95.7L11.7002 94.7C10.4002 94.4 9.1002 94.2 8.0002 94.2C3.8002 94.2 0.700195 96.3 0.700195 100.4C0.700195 103.9 3.1002 105.3 5.6002 106.5C8.1002 107.7 10.9002 108.7 10.9002 111.6C10.9002 114.6 8.0002 115.8 5.9002 115.8C4.7002 115.8 3.4002 115.5 2.4002 115.2C1.7002 115.1 1.2002 115.7 1.1002 116.5L1.0002 117.3C2.5002 117.8 4.0002 118.1 5.5002 118.1C10.2002 118.1 13.9002 116.3 13.9002 111.4C13.8002 107.6 11.4002 106.1 8.9002 104.8ZM50.3002 101.1C48.8002 101.1 46.3002 101.9 45.2002 104.3C44.3002 102.1 42.4002 101.2 40.5002 101.2C38.1002 101.2 36.4002 102 35.3002 104H35.0002V102.8C35.0002 102.1 34.5002 101.2 33.7002 101.2L33.8002 101H32.0002V118H34.0002C34.8002 118 35.2002 117.3 35.2002 116.6L35.0002 116.5V109.7C35.0002 106.6 36.6002 103.6 39.7002 103.6C42.1002 103.6 43.0002 106.1 43.0002 108.2V118.1H44.3002C45.0002 118.1 46.0002 117.4 46.0002 116.7V109.7C46.0002 106.6 47.1002 103.6 50.2002 103.6C52.6002 103.6 53.0002 106.1 53.0002 108.2V118.1H54.6002C55.3002 118.1 56.0002 117.5 56.0002 116.9V107.5C56.0002 103.8 54.5002 101.1 50.3002 101.1ZM96.7002 101C94.4002 101 92.1002 102 91.2002 104H91.0002V102.8C91.0002 102 90.4002 101.2 89.6002 101.2V101H88.0002V118H89.8002C90.5002 118 91.0002 117.3 91.0002 116.6V110.3C91.0002 106.3 92.8002 103.5 96.3002 103.5C98.9002 103.7 100 105.5 100 109.3V117.9H101.3C102 117.9 103 117.2 103 116.5V108.1C103 103.7 100.9 101 96.7002 101ZM117.6 101V101.3C117 101.3 116.3 101.8 116.1 102.4L111.9 115H111.8L107.7 102.5C107.4 101.9 106.8 101.2 106.2 101.2V101H104.1L109.7 116.5C109.9 117 110.3 118 110.3 118.4C110.3 118.7 109.4 122.5 106.7 122.5H106.5C105.8 122.5 105.3 123 105.2 123.7L105.1 124.8C105.6 124.9 106.2 125 107.2 125C111.2 125 112.4 121.1 113.5 118L119.5 101H117.6ZM60.0002 89.2C84.6002 89.2 104.6 69.2 104.6 44.6C104.6 20 84.6002 0 60.0002 0C35.4002 0 15.4002 20 15.4002 44.6C15.4002 69.2 35.4002 89.2 60.0002 89.2ZM30.4002 47.8C31.1002 45.6 32.8002 45.2 34.6002 45.7C36.4002 46.3 37.2002 48.5 36.6002 50.2C36.5002 50.4 36.4002 50.7 36.3002 51.1L35.5002 52.5C35.1002 53.9 36.9002 54.8 38.2002 55.2C41.1002 56.1 43.9002 54.6 44.6002 52.2C45.3002 50 43.9002 48.5 43.3002 48L40.6002 45.1C39.3002 43.7 36.6002 39.8 37.9002 35.4C38.4002 33.7 39.5002 31.9 41.1002 30.7C44.4002 28.2 48.1002 27.8 51.5002 28.8C56.0002 30.1 58.1002 33.1 60.9002 35.3C62.5002 30.7 64.6002 26.2 67.9002 22.4C70.8002 18.9 74.8002 16.5 79.3002 16.3C83.8002 16.2 87.2002 18.2 87.4002 21.4C87.4002 22.8 86.7002 25.5 83.9002 25.6C81.8002 25.7 80.4002 24.4 80.3002 22.6C80.3002 21.9 80.5002 21.3 80.9002 20.6C81.4002 19.7 81.5002 19.6 81.4002 19.2C81.4002 18 79.6002 18 79.1002 18C72.4002 18.2 70.6002 27.3 69.2002 34.6L68.5002 38.5C72.4002 39.1 75.1002 38.4 76.6002 37.4C78.7002 36 76.0002 34.6 76.3002 33C76.7002 31.4 78.1002 30.6 79.3002 30.6C80.9002 30.6 82.1002 32.3 82.1002 34C82.0002 36.8 78.3002 40.8 70.7002 40.6C69.8002 40.6 68.9002 40.5 68.1002 40.4L67.0002 48.3C65.7002 54.3 64.0002 62.4 58.0002 69.5C52.8002 75.7 47.5002 76.7 45.1002 76.7C40.7002 76.8 37.7002 74.5 37.6002 71.3C37.5002 68.2 40.2002 66.6 42.0002 66.5C44.4002 66.4 46.0002 68.1 46.1002 70.1C46.2002 71.8 45.3002 72.3 44.7002 72.6C44.3002 72.9 43.7002 73.2 43.8002 73.9C43.8002 74.2 44.1002 74.9 45.1002 74.8C47.0002 74.7 48.2002 73.8 49.1002 73.2C53.4002 69.6 55.1002 63.3 57.3002 51.9L57.8002 49.1C58.5002 45.4 59.4002 41.3 60.6002 37.1C57.6002 34.8 55.7002 32 51.6002 30.9C48.8002 30.1 47.1002 30.8 45.9002 32.3C44.5002 34.1 44.9002 36.4 46.3002 37.8L48.6002 40.3C51.4002 43.5 52.9002 46 52.3002 49.4C51.4002 54.8 45.0002 58.9 37.4002 56.6C30.8002 54.9 29.6002 50.3 30.4002 47.8Z" fill="#1A171B"/>
</svg>